<svg xmlns="http://www.w3.org/2000/svg" width="20.303" height="16.052" viewBox="0 0 20.303 16.052">
  <g id="eye-view" transform="translate(0 0)">
    <g id="Group_86" data-name="Group 86" transform="translate(0 2.786)">
      <path id="Path_160" data-name="Path 160" d="M17.938,99.117a10.872,10.872,0,0,1-7.789,3.144A10.922,10.922,0,0,1,2.36,99.117a11.365,11.365,0,0,1-2.3-3.168.685.685,0,0,1,0-.572A9.714,9.714,0,0,1,2.3,92.4a11.349,11.349,0,0,1,7.92-2.918,11.1,11.1,0,0,1,7.849,2.93,9.206,9.206,0,0,1,2.18,2.99.675.675,0,0,1-.012.548A11.077,11.077,0,0,1,17.938,99.117Zm-7.682-8.159a3.478,3.478,0,1,0,3.478,3.478A3.482,3.482,0,0,0,10.256,90.958Z" transform="translate(0.002 -89.481)" fill="#00897b"/>
    </g>
    <path id="Path_2137" data-name="Path 2137" d="M0,20.089H1.715L2.613,0H.9Z" transform="translate(4.142 16.052) rotate(-135)" fill="#00897b"/>
  </g>
</svg>
