<svg xmlns="http://www.w3.org/2000/svg" width="35" height="26" viewBox="0 0 35 26">
  <path id="Fill_927" data-name="Fill 927" d="M26.733,26H8.267a4.361,4.361,0,0,1-4.3-3.554L1.7,10.113H1.459a1.445,1.445,0,1,1,0-2.889h5.23l6.863-6.8a1.471,1.471,0,0,1,2.064,0,1.441,1.441,0,0,1,0,2.05l-4.8,4.752H24.188l-4.8-4.752a1.442,1.442,0,0,1,0-2.05,1.47,1.47,0,0,1,2.062,0l6.863,6.8h5.23a1.445,1.445,0,1,1,0,2.889H33.3L31.037,22.446A4.361,4.361,0,0,1,26.733,26ZM4.664,10.113,6.832,21.927a1.455,1.455,0,0,0,1.435,1.184H26.733a1.454,1.454,0,0,0,1.433-1.184l2.169-11.814H4.664ZM23.333,20.227a1.482,1.482,0,0,1-.24-.02,1.444,1.444,0,0,1-.944-.584,1.419,1.419,0,0,1-.253-1.076l.729-4.334A1.451,1.451,0,0,1,24.063,13a1.477,1.477,0,0,1,.24.02,1.445,1.445,0,0,1,.946.585,1.416,1.416,0,0,1,.251,1.074l-.728,4.334A1.454,1.454,0,0,1,23.333,20.227Zm-11.666,0A1.451,1.451,0,0,1,10.23,19.01L9.5,14.676A1.416,1.416,0,0,1,9.751,13.6a1.445,1.445,0,0,1,.946-.585,1.477,1.477,0,0,1,.24-.02,1.451,1.451,0,0,1,1.438,1.218l.729,4.334a1.419,1.419,0,0,1-.253,1.076,1.444,1.444,0,0,1-.944.584A1.477,1.477,0,0,1,11.667,20.227Zm5.834-.006a1.453,1.453,0,0,1-1.459-1.443V14.445a1.458,1.458,0,0,1,2.916,0v4.334A1.452,1.452,0,0,1,17.5,20.222Z" fill="#fff"/>
</svg>
