<svg id="Group_27" data-name="Group 27" xmlns="http://www.w3.org/2000/svg" width="20.303" height="15.451" viewBox="0 0 20.303 15.451">
  <g id="Group_26" data-name="Group 26" transform="translate(0 0)">
    <path id="Path_2061" data-name="Path 2061" d="M2.479,57.75H17.82A2.485,2.485,0,0,1,20.3,60.233V70.718A2.485,2.485,0,0,1,17.82,73.2H2.483A2.485,2.485,0,0,1,0,70.718V60.237A2.482,2.482,0,0,1,2.479,57.75Z" transform="translate(0 -57.75)" fill="#00897b"/>
    <path id="Path_2062" data-name="Path 2062" d="M60.141,113.3l-4.221-3.6a.444.444,0,0,1-.036-.648.5.5,0,0,1,.682-.034l5.82,4.962,1.136-.963s.007-.007.007-.01a.706.706,0,0,1,.079-.064l4.621-3.928a.5.5,0,0,1,.682.037.441.441,0,0,1-.039.648L64.6,113.33l4.253,3.782a.444.444,0,0,1,.021.648.506.506,0,0,1-.354.146.5.5,0,0,1-.329-.122l-4.317-3.836-1.171.994a.5.5,0,0,1-.643,0l-1.2-1.024-4.292,3.873a.5.5,0,0,1-.682-.017.444.444,0,0,1,.018-.648Z" transform="translate(-52.242 -105.682)" fill="#e2e5ec"/>
  </g>
</svg>
