<svg xmlns="http://www.w3.org/2000/svg" width="24" height="24" viewBox="0 0 24 24">
  <g id="Group_274" data-name="Group 274" transform="translate(-30 -347)">
    <circle id="Ellipse_30" data-name="Ellipse 30" cx="12" cy="12" r="12" transform="translate(30 347)" fill="#00897b"/>
    <path id="Path_33961" d="M6.653,13.962A25.443,25.443,0,0,1,2.327,10.3,9.529,9.529,0,0,1,.268,6.722C-.5,4.106.4,1.111,2.925.225a4.014,4.014,0,0,1,3.9.715h0a4.02,4.02,0,0,1,3.9-.715c2.527.886,3.436,3.881,2.663,6.5A9.529,9.529,0,0,1,11.323,10.3,25.443,25.443,0,0,1,7,13.962l-.169.114Z" transform="translate(35.175 352.5)" fill="none" stroke="#f8f9fd" stroke-linecap="round" stroke-linejoin="round" stroke-miterlimit="10" stroke-width="1"/>
  </g>
</svg>
